<mxfile host="Electron" agent="Mozilla/5.0 (Windows NT 10.0; Win64; x64) AppleWebKit/537.36 (KHTML, like Gecko) draw.io/27.0.2 Chrome/134.0.6998.205 Electron/35.3.0 Safari/537.36" version="27.0.2">
  <diagram name="Page-1" id="t-8oRQaH_S0rjS87zA3V">
    <mxGraphModel dx="733" dy="906" grid="1" gridSize="10" guides="1" tooltips="1" connect="1" arrows="1" fold="1" page="1" pageScale="1" pageWidth="827" pageHeight="1169" math="0" shadow="0">
      <root>
        <mxCell id="0" />
        <mxCell id="1" parent="0" />
        <mxCell id="gGeE6c9y_24SSbr7kJLM-14" style="edgeStyle=orthogonalEdgeStyle;rounded=0;orthogonalLoop=1;jettySize=auto;html=1;exitX=0.5;exitY=1;exitDx=0;exitDy=0;entryX=0.5;entryY=0;entryDx=0;entryDy=0;" edge="1" parent="1" source="gGeE6c9y_24SSbr7kJLM-1" target="gGeE6c9y_24SSbr7kJLM-2">
          <mxGeometry relative="1" as="geometry" />
        </mxCell>
        <mxCell id="gGeE6c9y_24SSbr7kJLM-1" value="" style="ellipse;fillColor=strokeColor;html=1;" vertex="1" parent="1">
          <mxGeometry x="420" y="60" width="30" height="30" as="geometry" />
        </mxCell>
        <mxCell id="gGeE6c9y_24SSbr7kJLM-15" style="edgeStyle=orthogonalEdgeStyle;rounded=0;orthogonalLoop=1;jettySize=auto;html=1;exitX=0.5;exitY=1;exitDx=0;exitDy=0;entryX=0.5;entryY=0;entryDx=0;entryDy=0;" edge="1" parent="1" source="gGeE6c9y_24SSbr7kJLM-2" target="gGeE6c9y_24SSbr7kJLM-3">
          <mxGeometry relative="1" as="geometry" />
        </mxCell>
        <mxCell id="gGeE6c9y_24SSbr7kJLM-16" value="Opens App" style="edgeLabel;html=1;align=center;verticalAlign=middle;resizable=0;points=[];" vertex="1" connectable="0" parent="gGeE6c9y_24SSbr7kJLM-15">
          <mxGeometry x="-0.0667" y="-2" relative="1" as="geometry">
            <mxPoint y="-1" as="offset" />
          </mxGeometry>
        </mxCell>
        <mxCell id="gGeE6c9y_24SSbr7kJLM-2" value="App Closed" style="html=1;align=center;verticalAlign=top;rounded=1;absoluteArcSize=1;arcSize=10;dashed=0;whiteSpace=wrap;" vertex="1" parent="1">
          <mxGeometry x="392.5" y="170" width="85" height="30" as="geometry" />
        </mxCell>
        <mxCell id="gGeE6c9y_24SSbr7kJLM-17" style="edgeStyle=orthogonalEdgeStyle;rounded=0;orthogonalLoop=1;jettySize=auto;html=1;exitX=1;exitY=0.25;exitDx=0;exitDy=0;entryX=0;entryY=0.25;entryDx=0;entryDy=0;" edge="1" parent="1" source="gGeE6c9y_24SSbr7kJLM-3" target="gGeE6c9y_24SSbr7kJLM-5">
          <mxGeometry relative="1" as="geometry" />
        </mxCell>
        <mxCell id="gGeE6c9y_24SSbr7kJLM-18" value="SMS/QR/call" style="edgeLabel;html=1;align=center;verticalAlign=middle;resizable=0;points=[];" vertex="1" connectable="0" parent="gGeE6c9y_24SSbr7kJLM-17">
          <mxGeometry x="0.021" y="1" relative="1" as="geometry">
            <mxPoint as="offset" />
          </mxGeometry>
        </mxCell>
        <mxCell id="gGeE6c9y_24SSbr7kJLM-19" style="edgeStyle=orthogonalEdgeStyle;rounded=0;orthogonalLoop=1;jettySize=auto;html=1;exitX=0.5;exitY=1;exitDx=0;exitDy=0;entryX=0.5;entryY=0;entryDx=0;entryDy=0;" edge="1" parent="1" source="gGeE6c9y_24SSbr7kJLM-3" target="gGeE6c9y_24SSbr7kJLM-4">
          <mxGeometry relative="1" as="geometry" />
        </mxCell>
        <mxCell id="gGeE6c9y_24SSbr7kJLM-20" value="Check Bus Arrivals" style="edgeLabel;html=1;align=center;verticalAlign=middle;resizable=0;points=[];" vertex="1" connectable="0" parent="gGeE6c9y_24SSbr7kJLM-19">
          <mxGeometry x="-0.0952" relative="1" as="geometry">
            <mxPoint as="offset" />
          </mxGeometry>
        </mxCell>
        <mxCell id="gGeE6c9y_24SSbr7kJLM-3" value="App Opened" style="html=1;align=center;verticalAlign=top;rounded=1;absoluteArcSize=1;arcSize=10;dashed=0;whiteSpace=wrap;" vertex="1" parent="1">
          <mxGeometry x="392.5" y="280" width="85" height="30" as="geometry" />
        </mxCell>
        <mxCell id="gGeE6c9y_24SSbr7kJLM-22" style="edgeStyle=orthogonalEdgeStyle;rounded=0;orthogonalLoop=1;jettySize=auto;html=1;exitX=1;exitY=0.5;exitDx=0;exitDy=0;entryX=0;entryY=0.5;entryDx=0;entryDy=0;" edge="1" parent="1" source="gGeE6c9y_24SSbr7kJLM-4" target="gGeE6c9y_24SSbr7kJLM-6">
          <mxGeometry relative="1" as="geometry" />
        </mxCell>
        <mxCell id="gGeE6c9y_24SSbr7kJLM-4" value="Checking Arrivals" style="html=1;align=center;verticalAlign=top;rounded=1;absoluteArcSize=1;arcSize=10;dashed=0;whiteSpace=wrap;" vertex="1" parent="1">
          <mxGeometry x="330" y="370" width="105" height="30" as="geometry" />
        </mxCell>
        <mxCell id="gGeE6c9y_24SSbr7kJLM-21" style="edgeStyle=orthogonalEdgeStyle;rounded=0;orthogonalLoop=1;jettySize=auto;html=1;exitX=0;exitY=1;exitDx=0;exitDy=0;entryX=1;entryY=0.25;entryDx=0;entryDy=0;" edge="1" parent="1" source="gGeE6c9y_24SSbr7kJLM-5" target="gGeE6c9y_24SSbr7kJLM-4">
          <mxGeometry relative="1" as="geometry">
            <Array as="points">
              <mxPoint x="530" y="310" />
              <mxPoint x="530" y="378" />
            </Array>
          </mxGeometry>
        </mxCell>
        <mxCell id="gGeE6c9y_24SSbr7kJLM-23" value="Views Arrival Time" style="edgeLabel;html=1;align=center;verticalAlign=middle;resizable=0;points=[];" vertex="1" connectable="0" parent="gGeE6c9y_24SSbr7kJLM-21">
          <mxGeometry x="0.5384" y="8" relative="1" as="geometry">
            <mxPoint x="25" y="4" as="offset" />
          </mxGeometry>
        </mxCell>
        <mxCell id="gGeE6c9y_24SSbr7kJLM-5" value="Alternative Inputs" style="html=1;align=center;verticalAlign=top;rounded=1;absoluteArcSize=1;arcSize=10;dashed=0;whiteSpace=wrap;" vertex="1" parent="1">
          <mxGeometry x="580" y="280" width="110" height="30" as="geometry" />
        </mxCell>
        <mxCell id="gGeE6c9y_24SSbr7kJLM-24" style="edgeStyle=orthogonalEdgeStyle;rounded=0;orthogonalLoop=1;jettySize=auto;html=1;exitX=0.5;exitY=1;exitDx=0;exitDy=0;entryX=0.5;entryY=0;entryDx=0;entryDy=0;" edge="1" parent="1" source="gGeE6c9y_24SSbr7kJLM-6" target="gGeE6c9y_24SSbr7kJLM-7">
          <mxGeometry relative="1" as="geometry" />
        </mxCell>
        <mxCell id="gGeE6c9y_24SSbr7kJLM-25" value="Buss Arrives at Stop" style="edgeLabel;html=1;align=center;verticalAlign=middle;resizable=0;points=[];" vertex="1" connectable="0" parent="gGeE6c9y_24SSbr7kJLM-24">
          <mxGeometry x="0.1143" y="-5" relative="1" as="geometry">
            <mxPoint y="-1" as="offset" />
          </mxGeometry>
        </mxCell>
        <mxCell id="gGeE6c9y_24SSbr7kJLM-37" style="edgeStyle=orthogonalEdgeStyle;rounded=0;orthogonalLoop=1;jettySize=auto;html=1;exitX=1;exitY=0.5;exitDx=0;exitDy=0;entryX=0.5;entryY=0;entryDx=0;entryDy=0;" edge="1" parent="1" source="gGeE6c9y_24SSbr7kJLM-6" target="gGeE6c9y_24SSbr7kJLM-9">
          <mxGeometry relative="1" as="geometry">
            <Array as="points">
              <mxPoint x="710" y="385" />
              <mxPoint x="710" y="420" />
              <mxPoint x="462" y="420" />
            </Array>
          </mxGeometry>
        </mxCell>
        <mxCell id="gGeE6c9y_24SSbr7kJLM-38" value="Delay &amp;gt; 2 min" style="edgeLabel;html=1;align=center;verticalAlign=middle;resizable=0;points=[];" vertex="1" connectable="0" parent="gGeE6c9y_24SSbr7kJLM-37">
          <mxGeometry x="0.2989" y="4" relative="1" as="geometry">
            <mxPoint as="offset" />
          </mxGeometry>
        </mxCell>
        <mxCell id="gGeE6c9y_24SSbr7kJLM-6" value="Monitoring Bus" style="html=1;align=center;verticalAlign=top;rounded=1;absoluteArcSize=1;arcSize=10;dashed=0;whiteSpace=wrap;" vertex="1" parent="1">
          <mxGeometry x="595" y="370" width="95" height="30" as="geometry" />
        </mxCell>
        <mxCell id="gGeE6c9y_24SSbr7kJLM-26" style="edgeStyle=orthogonalEdgeStyle;rounded=0;orthogonalLoop=1;jettySize=auto;html=1;exitX=0.5;exitY=1;exitDx=0;exitDy=0;entryX=0.5;entryY=0;entryDx=0;entryDy=0;" edge="1" parent="1" source="gGeE6c9y_24SSbr7kJLM-7" target="gGeE6c9y_24SSbr7kJLM-10">
          <mxGeometry relative="1" as="geometry" />
        </mxCell>
        <mxCell id="gGeE6c9y_24SSbr7kJLM-27" value="Bus Arrives at Stop" style="edgeLabel;html=1;align=center;verticalAlign=middle;resizable=0;points=[];" vertex="1" connectable="0" parent="gGeE6c9y_24SSbr7kJLM-26">
          <mxGeometry x="-0.1501" y="-2" relative="1" as="geometry">
            <mxPoint y="-1" as="offset" />
          </mxGeometry>
        </mxCell>
        <mxCell id="gGeE6c9y_24SSbr7kJLM-7" value="Bus Approaching" style="html=1;align=center;verticalAlign=top;rounded=1;absoluteArcSize=1;arcSize=10;dashed=0;whiteSpace=wrap;" vertex="1" parent="1">
          <mxGeometry x="587.5" y="470" width="110" height="30" as="geometry" />
        </mxCell>
        <mxCell id="gGeE6c9y_24SSbr7kJLM-35" style="edgeStyle=orthogonalEdgeStyle;rounded=0;orthogonalLoop=1;jettySize=auto;html=1;exitX=0;exitY=0;exitDx=0;exitDy=0;entryX=0;entryY=0.5;entryDx=0;entryDy=0;" edge="1" parent="1" source="gGeE6c9y_24SSbr7kJLM-8" target="gGeE6c9y_24SSbr7kJLM-4">
          <mxGeometry relative="1" as="geometry" />
        </mxCell>
        <mxCell id="gGeE6c9y_24SSbr7kJLM-36" value="Return to Original Route" style="edgeLabel;html=1;align=center;verticalAlign=middle;resizable=0;points=[];" vertex="1" connectable="0" parent="gGeE6c9y_24SSbr7kJLM-35">
          <mxGeometry x="-0.6571" y="2" relative="1" as="geometry">
            <mxPoint y="-1" as="offset" />
          </mxGeometry>
        </mxCell>
        <mxCell id="gGeE6c9y_24SSbr7kJLM-8" value="Viewing Alternatives" style="html=1;align=center;verticalAlign=top;rounded=1;absoluteArcSize=1;arcSize=10;dashed=0;whiteSpace=wrap;" vertex="1" parent="1">
          <mxGeometry x="160" y="460" width="130" height="30" as="geometry" />
        </mxCell>
        <mxCell id="gGeE6c9y_24SSbr7kJLM-40" style="edgeStyle=orthogonalEdgeStyle;rounded=0;orthogonalLoop=1;jettySize=auto;html=1;exitX=1;exitY=0.5;exitDx=0;exitDy=0;entryX=1;entryY=0.25;entryDx=0;entryDy=0;" edge="1" parent="1" source="gGeE6c9y_24SSbr7kJLM-9" target="gGeE6c9y_24SSbr7kJLM-6">
          <mxGeometry relative="1" as="geometry">
            <Array as="points">
              <mxPoint x="511" y="475" />
              <mxPoint x="511" y="460" />
              <mxPoint x="740" y="460" />
              <mxPoint x="740" y="378" />
            </Array>
          </mxGeometry>
        </mxCell>
        <mxCell id="gGeE6c9y_24SSbr7kJLM-41" value="continue monitoring" style="edgeLabel;html=1;align=center;verticalAlign=middle;resizable=0;points=[];" vertex="1" connectable="0" parent="gGeE6c9y_24SSbr7kJLM-40">
          <mxGeometry x="0.5248" y="2" relative="1" as="geometry">
            <mxPoint as="offset" />
          </mxGeometry>
        </mxCell>
        <mxCell id="gGeE6c9y_24SSbr7kJLM-42" style="edgeStyle=orthogonalEdgeStyle;rounded=0;orthogonalLoop=1;jettySize=auto;html=1;exitX=0;exitY=0.5;exitDx=0;exitDy=0;entryX=1;entryY=0.5;entryDx=0;entryDy=0;" edge="1" parent="1" source="gGeE6c9y_24SSbr7kJLM-9" target="gGeE6c9y_24SSbr7kJLM-8">
          <mxGeometry relative="1" as="geometry" />
        </mxCell>
        <mxCell id="gGeE6c9y_24SSbr7kJLM-43" value="Significant Delay" style="edgeLabel;html=1;align=center;verticalAlign=middle;resizable=0;points=[];" vertex="1" connectable="0" parent="gGeE6c9y_24SSbr7kJLM-42">
          <mxGeometry x="0.1777" y="4" relative="1" as="geometry">
            <mxPoint as="offset" />
          </mxGeometry>
        </mxCell>
        <mxCell id="gGeE6c9y_24SSbr7kJLM-9" value="Deley Detected" style="html=1;align=center;verticalAlign=top;rounded=1;absoluteArcSize=1;arcSize=10;dashed=0;whiteSpace=wrap;" vertex="1" parent="1">
          <mxGeometry x="392.5" y="460" width="97.5" height="30" as="geometry" />
        </mxCell>
        <mxCell id="gGeE6c9y_24SSbr7kJLM-28" style="edgeStyle=orthogonalEdgeStyle;rounded=0;orthogonalLoop=1;jettySize=auto;html=1;exitX=0.5;exitY=1;exitDx=0;exitDy=0;entryX=0.5;entryY=0;entryDx=0;entryDy=0;" edge="1" parent="1" source="gGeE6c9y_24SSbr7kJLM-10" target="gGeE6c9y_24SSbr7kJLM-11">
          <mxGeometry relative="1" as="geometry" />
        </mxCell>
        <mxCell id="gGeE6c9y_24SSbr7kJLM-29" value="Boards Bus" style="edgeLabel;html=1;align=center;verticalAlign=middle;resizable=0;points=[];" vertex="1" connectable="0" parent="gGeE6c9y_24SSbr7kJLM-28">
          <mxGeometry x="-0.1483" y="1" relative="1" as="geometry">
            <mxPoint as="offset" />
          </mxGeometry>
        </mxCell>
        <mxCell id="gGeE6c9y_24SSbr7kJLM-10" value="Bus Arrived" style="html=1;align=center;verticalAlign=top;rounded=1;absoluteArcSize=1;arcSize=10;dashed=0;whiteSpace=wrap;" vertex="1" parent="1">
          <mxGeometry x="600" y="550" width="90" height="25" as="geometry" />
        </mxCell>
        <mxCell id="gGeE6c9y_24SSbr7kJLM-31" style="edgeStyle=orthogonalEdgeStyle;rounded=0;orthogonalLoop=1;jettySize=auto;html=1;exitX=0.25;exitY=1;exitDx=0;exitDy=0;entryX=0.25;entryY=0;entryDx=0;entryDy=0;" edge="1" parent="1" source="gGeE6c9y_24SSbr7kJLM-11" target="gGeE6c9y_24SSbr7kJLM-12">
          <mxGeometry relative="1" as="geometry" />
        </mxCell>
        <mxCell id="gGeE6c9y_24SSbr7kJLM-32" value="Rate Accuracy" style="edgeLabel;html=1;align=center;verticalAlign=middle;resizable=0;points=[];" vertex="1" connectable="0" parent="gGeE6c9y_24SSbr7kJLM-31">
          <mxGeometry x="-0.0142" y="-5" relative="1" as="geometry">
            <mxPoint as="offset" />
          </mxGeometry>
        </mxCell>
        <mxCell id="gGeE6c9y_24SSbr7kJLM-11" value="Journey complete" style="html=1;align=center;verticalAlign=top;rounded=1;absoluteArcSize=1;arcSize=10;dashed=0;whiteSpace=wrap;" vertex="1" parent="1">
          <mxGeometry x="585" y="640" width="115" height="30" as="geometry" />
        </mxCell>
        <mxCell id="gGeE6c9y_24SSbr7kJLM-33" style="edgeStyle=orthogonalEdgeStyle;rounded=0;orthogonalLoop=1;jettySize=auto;html=1;exitX=0.5;exitY=1;exitDx=0;exitDy=0;entryX=1;entryY=0.5;entryDx=0;entryDy=0;" edge="1" parent="1" source="gGeE6c9y_24SSbr7kJLM-12" target="gGeE6c9y_24SSbr7kJLM-13">
          <mxGeometry relative="1" as="geometry" />
        </mxCell>
        <mxCell id="gGeE6c9y_24SSbr7kJLM-34" value="Exit App" style="edgeLabel;html=1;align=center;verticalAlign=middle;resizable=0;points=[];" vertex="1" connectable="0" parent="gGeE6c9y_24SSbr7kJLM-33">
          <mxGeometry x="-0.3732" y="3" relative="1" as="geometry">
            <mxPoint y="-1" as="offset" />
          </mxGeometry>
        </mxCell>
        <mxCell id="gGeE6c9y_24SSbr7kJLM-12" value="Rating Experience" style="html=1;align=center;verticalAlign=top;rounded=1;absoluteArcSize=1;arcSize=10;dashed=0;whiteSpace=wrap;" vertex="1" parent="1">
          <mxGeometry x="507.5" y="750" width="140" height="40" as="geometry" />
        </mxCell>
        <mxCell id="gGeE6c9y_24SSbr7kJLM-13" value="" style="ellipse;html=1;shape=endState;fillColor=strokeColor;" vertex="1" parent="1">
          <mxGeometry x="477.5" y="890" width="30" height="30" as="geometry" />
        </mxCell>
      </root>
    </mxGraphModel>
  </diagram>
</mxfile>
